<svg xmlns="http://www.w3.org/2000/svg" width="920" height="240" viewBox="0 0 920 240">
  <defs>
    <linearGradient id="g" x1="0" y1="0" x2="1" y2="1">
      <stop offset="0" stop-color="#a3e635"/>
      <stop offset="1" stop-color="#10b981"/>
    </linearGradient>
    <linearGradient id="moon" x1="0" y1="0" x2="1" y2="1">
      <stop offset="0" stop-color="#fde68a"/>
      <stop offset="1" stop-color="#eab308"/>
    </linearGradient>
    <filter id="glow" x="-20%" y="-20%" width="140%" height="140%">
      <feGaussianBlur stdDeviation="6" result="b"/>
      <feMerge>
        <feMergeNode in="b"/>
        <feMergeNode in="SourceGraphic"/>
      </feMerge>
    </filter>
  </defs>

  <g transform="translate(60,40)">
    <path d="M78 10c-26 10-44 35-44 64 0 38 31 70 70 70 24 0 45-12 57-31-9 4-19 7-29 7-38 0-70-31-70-70 0-15 5-29 12-40z" fill="url(#moon)" filter="url(#glow)"/>
    <circle cx="108" cy="52" r="4" fill="#ffffff" opacity="0.8"/>
    <circle cx="92" cy="86" r="3" fill="#ffffff" opacity="0.7"/>
  </g>

  <g transform="translate(200,92)">
    <text x="0" y="0" font-family="ui-sans-serif, system-ui, -apple-system, Segoe UI, Roboto, Arial" font-size="68" font-weight="900" letter-spacing="2" fill="url(#g)" filter="url(#glow)">LAMMA CHAT</text>
  </g>

  <g transform="translate(206,155)" opacity="0.9">
    <text x="0" y="0" font-family="ui-sans-serif, system-ui, -apple-system, Segoe UI, Roboto, Arial" font-size="22" font-weight="800" letter-spacing="3" fill="#94a3b8">MOONLIT ROOMS • REALTIME</text>
  </g>
</svg>
